<?xml version="1.0" encoding="iso-8859-1"?>
<!-- Generator: Adobe Illustrator 19.0.0, SVG Export Plug-In . SVG Version: 6.00 Build 0)  -->
<svg version="1.1" id="Capa_1" xmlns="http://www.w3.org/2000/svg" xmlns:xlink="http://www.w3.org/1999/xlink" x="0px" y="0px"
	 viewBox="0 0 502.686 502.686" style="enable-background:new 0 0 502.686 502.686;" xml:space="preserve">
<g>
	<g>
		<polygon style="fill:#010002;" points="502.686,476.65 478.612,170.237 444.595,170.237 444.595,102.159 476.606,102.159 
			476.606,26.036 320.412,26.036 320.412,102.159 346.47,102.159 346.47,170.237 316.422,170.237 316.422,230.311 186.242,230.311 
			186.242,170.237 156.194,170.237 156.194,102.159 182.23,102.159 182.23,26.036 26.058,26.036 26.058,102.159 58.069,102.159 
			58.069,170.237 24.051,170.237 0,476.65 186.242,476.65 186.242,374.49 220.302,374.49 220.302,410.6 280.355,410.6 
			280.355,374.49 316.422,374.49 316.422,476.65 		"/>
	</g>
	<g>
	</g>
	<g>
	</g>
	<g>
	</g>
	<g>
	</g>
	<g>
	</g>
	<g>
	</g>
	<g>
	</g>
	<g>
	</g>
	<g>
	</g>
	<g>
	</g>
	<g>
	</g>
	<g>
	</g>
	<g>
	</g>
	<g>
	</g>
	<g>
	</g>
</g>
<g>
</g>
<g>
</g>
<g>
</g>
<g>
</g>
<g>
</g>
<g>
</g>
<g>
</g>
<g>
</g>
<g>
</g>
<g>
</g>
<g>
</g>
<g>
</g>
<g>
</g>
<g>
</g>
<g>
</g>
</svg>
